<?xml version="1.0" encoding="UTF-8" standalone="no"?>
<svg
   xmlns:dc="http://purl.org/dc/elements/1.1/"
   xmlns:cc="http://creativecommons.org/ns#"
   xmlns:rdf="http://www.w3.org/1999/02/22-rdf-syntax-ns#"
   xmlns:svg="http://www.w3.org/2000/svg"
   xmlns="http://www.w3.org/2000/svg"
   xmlns:sodipodi="http://sodipodi.sourceforge.net/DTD/sodipodi-0.dtd"
   xmlns:inkscape="http://www.inkscape.org/namespaces/inkscape"
   id="fe93ff64-a18b-49f4-bb52-e425cf20d0d6"
   data-name="Layer 1"
   width="64"
   height="64"
   viewBox="0 0 64 64"
   version="1.1"
   sodipodi:docname="cog.svg"
   inkscape:version="0.92.2 (5c3e80d, 2017-08-06)">
  <metadata
     id="metadata143">
    <rdf:RDF>
      <cc:Work
         rdf:about="">
        <dc:format>image/svg+xml</dc:format>
        <dc:type
           rdf:resource="http://purl.org/dc/dcmitype/StillImage" />
        <dc:title>posting photo</dc:title>
      </cc:Work>
    </rdf:RDF>
  </metadata>
  <defs
     id="defs141" />
  <sodipodi:namedview
     pagecolor="#ffffff"
     bordercolor="#666666"
     borderopacity="1"
     objecttolerance="10"
     gridtolerance="10"
     guidetolerance="10"
     inkscape:pageopacity="0"
     inkscape:pageshadow="2"
     inkscape:window-width="2880"
     inkscape:window-height="1526"
     id="namedview139"
     showgrid="false"
     inkscape:zoom="2.2474286"
     inkscape:cx="-135.67752"
     inkscape:cy="81.307119"
     inkscape:window-x="-11"
     inkscape:window-y="-11"
     inkscape:window-maximized="1"
     inkscape:current-layer="fe93ff64-a18b-49f4-bb52-e425cf20d0d6" />
  <title
     id="title2">posting photo</title>
  <g
     id="g3045"
     transform="matrix(0.84584099,0,0,0.84584099,-141.27186,94.931566)">
    <path
       inkscape:connector-curvature="0"
       id="path3033"
       d="m 181.47002,-51.581411 c -0.14775,-0.09549 -0.41561,-0.174849 -0.59524,-0.176357 -0.39396,-0.0033 -2.09123,-1.674037 -2.09123,-2.058536 0,-0.149866 -0.0806,-0.272484 -0.1791,-0.272484 -0.11842,0 -0.1791,-7.40273 -0.1791,-21.849995 0,-14.447264 0.0607,-21.849995 0.1791,-21.849995 0.0985,0 0.1791,-0.122621 0.1791,-0.272488 0,-0.404273 1.70747,-2.055794 2.12544,-2.055794 0.19844,0 0.41061,-0.0806 0.47149,-0.17909 0.0721,-0.11672 4.59519,-0.17911 12.98462,-0.17911 8.38944,0 12.9125,-0.0624 12.98463,-0.17909 0.0609,-0.0985 0.28727,-0.1796 0.50309,-0.1802 0.21582,-4e-4 0.62325,-0.1215 0.9054,-0.26865 0.28214,-0.14715 0.7005,-0.26754 0.92969,-0.26754 0.22919,0 0.46651,-0.0806 0.52739,-0.17911 0.0609,-0.0985 0.34296,-0.17909 0.62685,-0.17909 0.28388,0 0.56596,-0.0806 0.62684,-0.1791 0.0609,-0.0985 0.26393,-0.1791 0.45122,-0.1791 0.50683,0 2.32481,-0.58904 2.32481,-0.75325 0,-0.0782 0.27732,-0.14224 0.61627,-0.14224 0.33895,0 0.66608,-0.0806 0.72696,-0.1791 0.0609,-0.0985 0.38326,-0.1791 0.7164,-0.1791 0.33313,0 0.65551,-0.0806 0.71639,-0.1791 0.0609,-0.0985 0.34296,-0.17909 0.62685,-0.17909 0.28388,0 0.56596,-0.0806 0.62684,-0.1791 0.0609,-0.0985 0.24697,-0.1796 0.41354,-0.1802 0.16657,-8.1e-4 0.5337,-0.1215 0.81585,-0.26865 0.28214,-0.14715 0.74556,-0.26755 1.02981,-0.26755 0.28425,0 0.51683,-0.0806 0.51683,-0.17909 0,-0.0985 0.28207,-0.1791 0.62684,-0.1791 0.34476,0 0.62684,-0.0806 0.62684,-0.1791 0,-0.0985 0.26596,-0.1791 0.59103,-0.1791 0.32506,0 0.68166,-0.0906 0.79245,-0.20142 0.11078,-0.11079 0.72685,-0.20638 1.36903,-0.21242 0.89635,-0.008 1.36757,0.0901 2.02835,0.42432 0.9761,0.49364 1.1792,0.70141 1.6091,1.64618 0.16809,0.36939 0.3707,0.67162 0.45025,0.67162 0.0795,0 0.14463,0.26596 0.14463,0.59103 0,0.32506 0.0738,0.66758 0.16393,0.76116 0.0902,0.0936 0.19091,0.37163 0.22387,0.61789 l 0.0599,0.44775 3.93482,0.0484 c 2.26094,0.0278 4.00946,0.12304 4.1103,0.22388 0.0965,0.0965 0.35549,0.17549 0.57549,0.17549 0.5151,0 2.02561,1.534567 2.15956,2.193956 0.055,0.270886 0.17058,0.49252 0.25677,0.49252 0.0887,0 0.15671,9.33017 0.15671,21.491801 0,12.161628 -0.068,21.491798 -0.15671,21.491798 -0.0862,0 -0.20174,0.221635 -0.25677,0.492521 -0.13845,0.681519 -1.64458,2.193954 -2.18481,2.193954 -0.23388,0 -0.47505,0.08059 -0.53593,0.179099 -0.14992,0.242569 -55.95108,0.242569 -56.32643,0 z m 56.90948,-29.77525 0.0458,-15.507099 -0.55205,-0.55206 -0.55206,-0.552059 h -27.5698 c -28.71379,0 -27.97893,-0.01839 -28.58548,0.716396 -0.27907,0.338089 -0.3394,31.076294 -0.0613,31.248154 0.25961,0.160445 0.74427,-0.212047 1.44007,-1.106788 0.34477,-0.443333 0.72759,-0.91291 0.85072,-1.043505 0.12313,-0.130594 0.22388,-0.27068 0.22388,-0.311298 0,-0.04062 0.36267,-0.457803 0.80594,-0.92707 0.44326,-0.469271 0.80594,-0.919001 0.80594,-0.999394 0,-0.08039 0.36267,-0.508846 0.80594,-0.952115 0.44327,-0.443269 0.80594,-0.851986 0.80594,-0.908269 0,-0.109584 0.576,-0.814364 1.16858,-1.429835 0.19945,-0.207156 0.60242,-0.695945 0.89549,-1.086195 1.35728,-1.807342 2.52091,-2.782871 3.31947,-2.782871 0.48161,0 1.75244,0.736607 2.04735,1.18669 0.14484,0.221059 0.44626,0.589042 0.66982,0.817749 0.22355,0.228703 0.6441,0.737653 0.93455,1.130999 0.29044,0.393349 0.67327,0.845522 0.85072,1.004831 0.17744,0.15931 0.32263,0.344312 0.32263,0.411113 0,0.0668 0.18133,0.309132 0.40297,0.538515 0.22163,0.229379 0.56416,0.644766 0.76117,0.923074 0.197,0.278308 0.8457,1.013803 1.44156,1.634431 l 1.08335,1.128418 h 1.4688 c 0.85979,0 1.46879,-0.07426 1.46879,-0.179101 0,-0.0985 0.0863,-0.179097 0.19189,-0.179097 0.21483,0 0.7036,-0.443072 0.7036,-0.637819 0,-0.06936 0.14518,-0.256455 0.32263,-0.415765 0.17745,-0.15931 0.56027,-0.609856 0.85072,-1.001213 0.29044,-0.391357 0.79001,-0.992455 1.11015,-1.335776 0.32014,-0.343318 0.58207,-0.687855 0.58207,-0.76564 0,-0.07778 0.32238,-0.483673 0.71639,-0.901982 0.39402,-0.418305 0.7164,-0.817777 0.7164,-0.887713 0,-0.06993 0.18133,-0.312288 0.40297,-0.538568 0.44039,-0.44962 1.10804,-1.265352 1.63588,-1.998727 0.18558,-0.25784 0.54825,-0.704965 0.80594,-0.993606 0.7147,-0.800549 0.91627,-1.063638 0.91627,-1.195919 0,-0.06658 0.18823,-0.291611 0.41828,-0.50008 0.23006,-0.208468 0.60908,-0.661115 0.84229,-1.005878 0.23319,-0.344766 0.59587,-0.788031 0.80594,-0.98504 0.21007,-0.197009 0.57501,-0.640278 0.81099,-0.98504 0.49225,-0.719166 1.21493,-1.557314 2.18957,-2.539416 0.61192,-0.616606 0.77049,-0.684357 1.60171,-0.684357 0.8988,0 0.94991,0.02882 1.98612,1.119366 0.58497,0.615648 1.2722,1.401446 1.52718,1.746208 0.25497,0.344763 0.72793,0.892656 1.051,1.217535 0.32308,0.324878 0.58741,0.62619 0.58741,0.669572 0,0.110063 0.53414,0.770869 1.11937,1.384818 0.27088,0.284181 0.49252,0.556548 0.49252,0.60526 0,0.04871 0.10074,0.189445 0.22387,0.312738 0.12313,0.123297 0.46566,0.532888 0.76117,0.910206 0.29551,0.377317 0.69848,0.855536 0.89549,1.062713 0.19701,0.207176 0.59798,0.698513 0.89106,1.091858 0.29306,0.393346 0.69604,0.884666 0.89548,1.091823 0.59258,0.615475 1.16858,1.320255 1.16858,1.429838 0,0.05628 0.36268,0.465001 0.80595,0.908266 0.44326,0.443269 0.80594,0.871721 0.80594,0.952119 0,0.08039 0.36267,0.530118 0.80594,0.999389 0.44327,0.469272 0.80594,0.920993 0.80594,1.003826 0,0.08284 0.0632,0.150611 0.14048,0.150611 0.0773,0 0.27555,0.221635 0.44062,0.49252 0.16507,0.270886 0.64587,0.872116 1.06843,1.336066 0.42256,0.463954 0.96978,1.125106 1.21604,1.469229 0.42899,0.599469 0.7781,0.821344 1.16415,0.739865 0.1173,-0.02476 0.19488,-5.388494 0.22485,-15.544901 z"
       style="opacity:1;fill:#333333;fill-opacity:1;stroke:none;stroke-width:3.38453531;stroke-linecap:round;stroke-linejoin:round;stroke-miterlimit:4;stroke-dasharray:10.15360588, 3.3845353;stroke-dashoffset:0;stroke-opacity:1" />
    <path
       inkscape:connector-curvature="0"
       id="path3035"
       d="m 174.15574,-67.977334 c -0.11431,-0.250897 -0.20784,-0.653867 -0.20784,-0.895494 0,-0.241623 -0.0806,-0.439316 -0.17911,-0.439316 -0.0985,0 -0.17909,-0.28208 -0.17909,-0.626846 0,-0.344763 -0.0806,-0.626842 -0.1791,-0.626842 -0.0985,0 -0.1791,-0.282084 -0.1791,-0.626846 0,-0.344763 -0.0806,-0.626842 -0.1791,-0.626842 -0.0985,0 -0.18195,-0.221635 -0.18544,-0.492524 -0.004,-0.270886 -0.12153,-0.694005 -0.2623,-0.940265 -0.14078,-0.24626 -0.25881,-0.66938 -0.2623,-0.940265 -0.004,-0.270886 -0.087,-0.492521 -0.18545,-0.492521 -0.0985,0 -0.1791,-0.277325 -0.1791,-0.616276 0,-0.33895 -0.0806,-0.666082 -0.1791,-0.726962 -0.0985,-0.06088 -0.17909,-0.342959 -0.17909,-0.626842 0,-0.283887 -0.0806,-0.565966 -0.1791,-0.626846 -0.0985,-0.06088 -0.1791,-0.331597 -0.1791,-0.601593 0,-0.27 -0.0689,-0.567471 -0.15321,-0.661051 -0.20972,-0.232893 -0.74228,-1.945628 -0.74228,-2.387178 0,-0.197315 -0.0806,-0.408561 -0.1791,-0.46944 -0.0985,-0.06088 -0.1791,-0.34296 -0.1791,-0.626842 0,-0.283887 -0.0806,-0.565967 -0.1791,-0.626846 -0.0985,-0.06088 -0.18195,-0.327568 -0.18544,-0.592641 -0.004,-0.26507 -0.12153,-0.683435 -0.2623,-0.929695 -0.14078,-0.24626 -0.25881,-0.630175 -0.26231,-0.853146 -0.004,-0.222971 -0.10322,-0.560524 -0.22162,-0.750115 -0.16176,-0.259023 -0.16522,-0.447636 -0.0139,-0.75874 0.11074,-0.227713 0.24976,-0.636889 0.30893,-0.909284 0.21886,-1.007541 1.887,-2.638961 2.69835,-2.638961 0.24514,0 0.4457,-0.0806 0.4457,-0.179097 0,-0.0985 0.27733,-0.179097 0.61628,-0.179097 0.33895,0 0.66608,-0.0806 0.72696,-0.179101 0.0609,-0.0985 0.26712,-0.179097 0.45832,-0.179097 0.34054,0 0.34763,0.237388 0.34763,11.64139 0,6.402766 -0.0274,11.641394 -0.0608,11.641394 -0.0334,0 -0.15433,-0.20528 -0.26865,-0.456173 z"
       style="opacity:1;fill:#333333;fill-opacity:1;stroke:none;stroke-width:3.38453531;stroke-linecap:round;stroke-linejoin:round;stroke-miterlimit:4;stroke-dasharray:10.15360588, 3.3845353;stroke-dashoffset:0;stroke-opacity:1" />
    <path
       inkscape:connector-curvature="0"
       id="path3037"
       d="m 183.70875,-43.197026 c -0.29551,-0.103515 -0.73878,-0.304541 -0.98504,-0.446724 -0.24626,-0.142184 -0.58133,-0.301295 -0.74461,-0.353582 -0.16327,-0.05229 -0.33964,-0.228655 -0.39193,-0.39193 -0.0523,-0.163275 -0.20903,-0.498349 -0.34832,-0.74461 -0.44604,-0.788557 -0.81216,-1.687419 -0.89363,-2.193954 l -0.0792,-0.492521 10.31809,0.0011 c 9.26269,10e-4 10.26562,0.02847 9.8051,0.268648 -0.28215,0.147149 -0.74081,0.267544 -1.01925,0.267544 -0.27844,0 -0.55606,0.08059 -0.61694,0.179098 -0.0609,0.0985 -0.34296,0.179099 -0.62684,0.179099 -0.28389,0 -0.56597,0.08059 -0.62685,0.179098 -0.0609,0.0985 -0.34296,0.179098 -0.62684,0.179098 -0.28389,0 -0.56163,0.07358 -0.61721,0.163515 -0.0556,0.08993 -0.42302,0.217908 -0.81652,0.284389 -0.39349,0.06648 -0.71545,0.194386 -0.71545,0.284232 0,0.08984 -0.28208,0.163356 -0.62684,0.163356 -0.34477,0 -0.62685,0.08059 -0.62685,0.179098 0,0.0985 -0.27732,0.179098 -0.61628,0.179098 -0.33895,0 -0.66608,0.0806 -0.72696,0.179099 -0.0609,0.0985 -0.26392,0.179098 -0.45122,0.179098 -0.50683,0 -2.3248,0.589036 -2.3248,0.75325 0,0.07823 -0.27732,0.142242 -0.61627,0.142242 -0.33896,0 -0.66609,0.08059 -0.72697,0.179098 -0.0609,0.0985 -0.38801,0.179098 -0.72696,0.179098 -0.33895,0 -0.61627,0.07213 -0.61627,0.160287 0,0.08816 -0.30223,0.204485 -0.67163,0.258504 -0.36938,0.05402 -0.9134,0.137652 -1.20891,0.185848 -0.29551,0.0482 -0.77907,0.0029 -1.07459,-0.100579 z"
       style="opacity:1;fill:#333333;fill-opacity:1;stroke:none;stroke-width:3.38453531;stroke-linecap:round;stroke-linejoin:round;stroke-miterlimit:4;stroke-dasharray:10.15360588, 3.3845353;stroke-dashoffset:0;stroke-opacity:1" />
    <path
       inkscape:connector-curvature="0"
       id="path3039"
       d="m 200.72309,-82.923619 c -0.0609,-0.0985 -0.27159,-0.179097 -0.46825,-0.179097 -0.4092,0 -2.31445,-1.835155 -2.60314,-2.507376 -0.59253,-1.379686 -0.81767,-3.24728 -0.42103,-3.492417 0.0985,-0.06088 0.1791,-0.264671 0.1791,-0.452868 0,-0.42731 0.59378,-1.50048 1.12282,-2.029327 0.62025,-0.620023 1.79201,-1.368419 2.14253,-1.368419 0.17414,0 0.31662,-0.08059 0.31662,-0.179101 0,-0.103478 0.56714,-0.179097 1.34324,-0.179097 0.77609,0 1.34324,0.07562 1.34324,0.179097 0,0.09851 0.1286,0.179101 0.28578,0.179101 0.33407,0 1.25258,0.491413 1.75748,0.940265 0.19391,0.172383 0.4059,0.313423 0.47109,0.313423 0.0652,0 0.37735,0.509908 0.69368,1.133132 0.51316,1.01101 0.57479,1.295171 0.57184,2.636598 -0.003,1.207963 -0.084,1.662864 -0.41403,2.314509 -0.426,0.841215 -1.67626,2.141131 -2.06738,2.149496 -0.12313,0.0024 -0.22387,0.08538 -0.22387,0.183887 0,0.0985 -0.15643,0.179097 -0.34763,0.179097 -0.1912,0 -0.39744,0.08059 -0.45832,0.179097 -0.0609,0.09851 -0.78622,0.179097 -1.61188,0.179097 -0.82566,0 -1.55101,-0.08059 -1.61189,-0.179097 z"
       style="opacity:1;fill:#333333;fill-opacity:1;stroke:none;stroke-width:3.38453531;stroke-linecap:round;stroke-linejoin:round;stroke-miterlimit:4;stroke-dasharray:10.15360588, 3.3845353;stroke-dashoffset:0;stroke-opacity:1" />
  </g>
</svg>
